<?xml version="1.0" encoding="UTF-8" standalone="no"?>
<svg
   xmlns:dc="http://purl.org/dc/elements/1.1/"
   xmlns:cc="http://creativecommons.org/ns#"
   xmlns:rdf="http://www.w3.org/1999/02/22-rdf-syntax-ns#"
   xmlns:svg="http://www.w3.org/2000/svg"
   xmlns="http://www.w3.org/2000/svg"
   xmlns:sodipodi="http://sodipodi.sourceforge.net/DTD/sodipodi-0.dtd"
   xmlns:inkscape="http://www.inkscape.org/namespaces/inkscape"
   sodipodi:docname="basettaTX.svg"
   inkscape:version="1.0 (4035a4fb49, 2020-05-01)"
   id="svg45"
   version="1.1"
   viewBox="0 0 210 297"
   height="297mm"
   width="210mm">
  <defs
     id="defs39" />
  <sodipodi:namedview
     inkscape:snap-global="false"
     inkscape:snap-bbox-midpoints="true"
     inkscape:snap-bbox-edge-midpoints="true"
     inkscape:bbox-paths="false"
     inkscape:bbox-nodes="true"
     inkscape:snap-bbox="true"
     inkscape:guide-bbox="true"
     showguides="false"
     showborder="false"
     inkscape:window-maximized="1"
     inkscape:window-y="-8"
     inkscape:window-x="-8"
     inkscape:window-height="657"
     inkscape:window-width="1280"
     showgrid="false"
     inkscape:document-rotation="0"
     inkscape:current-layer="layer1"
     inkscape:document-units="mm"
     inkscape:cy="374.6164"
     inkscape:cx="296.23292"
     inkscape:zoom="0.64255957"
     inkscape:pageshadow="2"
     inkscape:pageopacity="0.0"
     borderopacity="1.0"
     bordercolor="#666666"
     pagecolor="#ffffff"
     id="base">
    <sodipodi:guide
       id="guide79"
       orientation="0,-1"
       position="140.7137,110.48276" />
    <sodipodi:guide
       id="guide81"
       orientation="0,-1"
       position="140.8137,197.88275" />
    <sodipodi:guide
       id="guide83"
       orientation="1,0"
       position="72.813699,197.88275" />
    <sodipodi:guide
       id="guide104"
       orientation="0,-1"
       position="134.12547,127.46511" />
    <sodipodi:guide
       id="guide106"
       orientation="0,-1"
       position="131.12521,228.14033" />
  </sodipodi:namedview>
  <metadata
     id="metadata42">
    <rdf:RDF>
      <cc:Work
         rdf:about="">
        <dc:format>image/svg+xml</dc:format>
        <dc:type
           rdf:resource="http://purl.org/dc/dcmitype/StillImage" />
        <dc:title></dc:title>
      </cc:Work>
    </rdf:RDF>
  </metadata>
  <g
     id="layer1"
     inkscape:groupmode="layer"
     inkscape:label="Livello 1">
    <rect
       style="opacity:0.61;fill:none;stroke:#000000;stroke-width:0.2"
       id="rect52"
       width="135.8"
       height="174.79999"
       x="4.9136987"
       y="11.717261" />
    <rect
       style="opacity:0.61;fill:none;stroke:#ff0000;stroke-width:0.2"
       id="rect10"
       width="54.799999"
       height="161.8"
       x="11.167697"
       y="18.217249" />
    <rect
       y="25.959671"
       x="79.225212"
       height="85.800003"
       width="51.799999"
       id="rect10-2"
       style="opacity:0.61;fill:none;stroke:#ff0000;stroke-width:0.2" />
    <path
       d="m 135.37899,70.052449 a 1.3999946,1.3999989 0 0 1 -1.41125,-1.384349 1.3999946,1.3999989 0 0 1 1.38004,-1.415462 1.3999946,1.3999989 0 0 1 1.41965,1.375738 1.3999946,1.3999989 0 0 1 -1.37141,1.423832"
       sodipodi:arc-type="arc"
       sodipodi:open="true"
       sodipodi:end="1.5505243"
       sodipodi:start="1.5626928"
       sodipodi:ry="1.3999989"
       sodipodi:rx="1.3999946"
       sodipodi:cy="68.652496"
       sodipodi:cx="135.36765"
       sodipodi:type="arc"
       id="path108"
       style="opacity:0.61;fill:none;stroke:#00ff00;stroke-width:0.2" />
    <path
       style="opacity:0.61;fill:none;stroke:#00ff00;stroke-width:0.2"
       id="path108-6"
       sodipodi:type="arc"
       sodipodi:cx="72.744705"
       sodipodi:cy="68.769585"
       sodipodi:rx="1.3999946"
       sodipodi:ry="1.3999989"
       sodipodi:start="1.5626928"
       sodipodi:end="1.5505243"
       sodipodi:open="true"
       sodipodi:arc-type="arc"
       d="m 72.75605,70.169538 a 1.3999946,1.3999989 0 0 1 -1.411252,-1.38435 1.3999946,1.3999989 0 0 1 1.380045,-1.415461 1.3999946,1.3999989 0 0 1 1.419649,1.375737 1.3999946,1.3999989 0 0 1 -1.371408,1.423832" />
    <path
       d="m 105.18067,23.667754 a 1.3999946,1.3999989 0 0 1 -1.41125,-1.384349 1.3999946,1.3999989 0 0 1 1.38004,-1.415462 1.3999946,1.3999989 0 0 1 1.41965,1.375738 1.3999946,1.3999989 0 0 1 -1.3714,1.423832"
       sodipodi:arc-type="arc"
       sodipodi:open="true"
       sodipodi:end="1.5505243"
       sodipodi:start="1.5626928"
       sodipodi:ry="1.3999989"
       sodipodi:rx="1.3999946"
       sodipodi:cy="22.267801"
       sodipodi:cx="105.16933"
       sodipodi:type="arc"
       id="path108-6-0"
       style="opacity:0.61;fill:none;stroke:#00ff00;stroke-width:0.2" />
    <path
       d="m 105.13656,117.02433 a 1.3999946,1.3999989 0 0 1 -1.41125,-1.38434 1.3999946,1.3999989 0 0 1 1.38004,-1.41547 1.3999946,1.3999989 0 0 1 1.41965,1.37574 1.3999946,1.3999989 0 0 1 -1.37141,1.42383"
       sodipodi:arc-type="arc"
       sodipodi:open="true"
       sodipodi:end="1.5505243"
       sodipodi:start="1.5626928"
       sodipodi:ry="1.3999989"
       sodipodi:rx="1.3999946"
       sodipodi:cy="115.62438"
       sodipodi:cx="105.12521"
       sodipodi:type="arc"
       id="path108-6-4"
       style="opacity:0.61;fill:none;stroke:#00ff00;stroke-width:0.2" />
    <rect
       style="opacity:0.61;fill:none;stroke:#ff0000;stroke-width:0.2"
       id="rect27"
       width="42.799999"
       height="29.799999"
       x="-174.57646"
       y="90.225212"
       transform="rotate(-90)" />
    <rect
       y="169.5349"
       x="14.955933"
       height="10"
       width="2.8"
       id="rect163"
       style="opacity:0.61;fill:none;stroke:#00ff00;stroke-width:0.2" />
    <rect
       style="opacity:0.61;fill:none;stroke:#00ff00;stroke-width:0.2"
       id="rect163-6"
       width="2.8"
       height="10"
       x="127.53723"
       y="169.5349" />
    <rect
       ry="0"
       style="opacity:0.61;fill:none;stroke:#00ff00;stroke-width:0.2"
       id="rect163-2"
       width="2.8"
       height="9.999999"
       x="14.955932"
       y="18.599611" />
    <rect
       y="18.599611"
       x="127.53723"
       height="9.999999"
       width="2.9090927"
       id="rect163-2-9"
       style="opacity:0.61;fill:none;stroke:#00ff00;stroke-width:0.2" />
    <rect
       style="opacity:0.61;fill:none;stroke:#00ff00;stroke-width:0.2"
       id="rect163-2-9-0"
       width="2.8"
       height="10"
       x="14.855932"
       y="94.217239" />
    <rect
       y="94.217239"
       x="127.63723"
       height="10"
       width="2.8"
       id="rect163-2-9-0-2"
       style="opacity:0.61;fill:none;stroke:#00ff00;stroke-width:0.2" />
    <path
       sodipodi:nodetypes="ccccccccccc"
       d="m 145.90372,16.849611 h -2.8301 l -0.0364,10 h 2.86649 m -1e-5,-10 v 0 l -0.0101,-2.738047 h 5.79964 v 15.276071 h -5.79964 l 0.0101,-2.538024"
       style="opacity:0.61;fill:none;stroke:#000000;stroke-width:0.2;stroke-miterlimit:4;stroke-dasharray:none"
       id="rect263" />
    <path
       id="rect263-3"
       style="opacity:0.61;fill:none;stroke:#000000;stroke-width:0.2;stroke-miterlimit:4;stroke-dasharray:none"
       d="m 145.64161,34.629421 h -2.8301 l -0.0364,10 h 2.86649 m -1e-5,-10 v 0 l -0.0101,-2.738047 h 5.79964 v 15.276071 h -5.79964 l 0.0101,-2.538024"
       sodipodi:nodetypes="ccccccccccc" />
    <path
       sodipodi:nodetypes="ccccccccccc"
       d="m 145.53867,52.232361 h -2.8301 l -0.0364,10 h 2.86649 m -2e-5,-10 v 0 l -0.0101,-2.738047 h 5.79964 v 15.276071 h -5.79964 l 0.0101,-2.538024"
       style="opacity:0.61;fill:none;stroke:#000000;stroke-width:0.2;stroke-miterlimit:4;stroke-dasharray:none"
       id="rect263-3-3" />
    <path
       sodipodi:nodetypes="ccccccccccc"
       d="m 145.6416,69.046667 h -2.8301 l -0.0364,10 h 2.86649 m -1e-5,-10 v 0 l -0.0101,-2.738047 h 5.79964 v 15.276071 h -5.79964 l 0.0101,-2.538024"
       style="opacity:0.61;fill:none;stroke:#000000;stroke-width:0.2;stroke-miterlimit:4;stroke-dasharray:none"
       id="rect263-3-8" />
    <path
       sodipodi:nodetypes="ccccccccccc"
       d="m 145.84749,85.894123 h -2.8301 l -0.0364,10 h 2.86649 m -1e-5,-10 v 0 l -0.0101,-2.738047 h 5.79964 v 15.276071 h -5.79964 l 0.0101,-2.538024"
       style="opacity:0.61;fill:none;stroke:#000000;stroke-width:0.2;stroke-miterlimit:4;stroke-dasharray:none"
       id="rect263-3-7" />
    <path
       id="rect263-3-7-1"
       style="opacity:0.61;fill:none;stroke:#000000;stroke-width:0.2;stroke-miterlimit:4;stroke-dasharray:none"
       d="m 146.05337,102.67353 h -2.8301 l -0.0364,10 h 2.86649 m -1e-5,-10 v 0 l -0.0101,-2.738043 h 5.79964 v 15.276073 h -5.79964 l 0.0101,-2.53803"
       sodipodi:nodetypes="ccccccccccc" />
    <rect
       x="79.108185"
       y="116.24284"
       class="st0"
       width="0.34978843"
       height="1.7268658"
       id="rect4"
       style="stroke-width:0.1;fill:none;stroke:#ff00ff;stroke-miterlimit:4;stroke-dasharray:none" />
    <rect
       x="78.070099"
       y="124.54986"
       class="st0"
       width="1.3878703"
       height="0.34988782"
       id="rect6"
       style="stroke-width:0.1;stroke:#ff00ff;fill:none;stroke-miterlimit:4;stroke-dasharray:none" />
    <path
       class="st0"
       d="m 79.232304,114.59498 c -0.801129,-0.13544 -1.692525,-0.23702 -2.96756,0 -3.712271,0.6772 -6.510579,3.95035 -6.510579,7.85555 0,4.4131 3.576869,8.00227 8,8.00227 4.411848,0 8,-3.57788 8,-8.00227 -0.01128,-3.9052 -2.809591,-7.15577 -6.521861,-7.85555 m -4.626235,10.99325 h -0.688293 v -0.68849 h 0.688293 z m 0,-1.03837 h -0.688293 v -3.79234 h 0.688293 z m 0.688294,-8.99551 h 0.688293 l -0.01128,4.15351 h 0.349788 v -4.15351 h 0.688293 v 4.15351 h 0.349789 l 0.01128,-4.15351 h 0.688294 v 4.842 h -2.764457 z m 4.84062,13.8375 H 79.44669 v -0.68849 h -1.38787 v 0.68849 h -0.688294 v -0.68849 H 75.99394 v 0.68849 h -0.688294 v -1.38826 h 4.840621 v 1.38826 z m 0,-2.76524 H 78.05882 v 0.34989 h 2.076163 v 0.68849 H 78.05882 v -0.34989 h -0.688294 v 0.34989 h -2.076163 v -0.68849 h 2.076163 v -0.34989 h -2.076163 v -0.68849 h 4.84062 z m 0,-1.03838 h -4.84062 v -0.68849 h 2.076163 v -0.34988 h -2.076163 v -0.68849 h 4.84062 z m 0,-2.07675 h -4.84062 v -0.68849 h 4.152327 v -0.34989 h -4.152327 v -0.68849 h 4.152327 v -0.34988 l -4.152327,0.0113 v -0.68849 h 4.84062 z m 0,-4.842 h -1.038081 v 1.03838 h 1.038081 v 0.68849 h -1.726375 v -4.842 h 1.726375 z m 1.387871,6.91875 H 80.83456 v -0.68849 h 0.688294 z m 0,-1.03837 H 80.83456 v -3.79234 h 0.688294 z"
       id="path8"
       style="stroke-width:0.1;stroke:#ff00ff;fill:none;stroke-miterlimit:4;stroke-dasharray:none" />
    <path
       class="st1"
       d="M 77.720315,116.05097"
       id="path10"
       style="stroke-width:0.264584;stroke:#ff00ff" />
  </g>
</svg>
