<?xml version="1.0" encoding="UTF-8" standalone="no"?>
<svg
   xmlns:dc="http://purl.org/dc/elements/1.1/"
   xmlns:cc="http://creativecommons.org/ns#"
   xmlns:rdf="http://www.w3.org/1999/02/22-rdf-syntax-ns#"
   xmlns:svg="http://www.w3.org/2000/svg"
   xmlns="http://www.w3.org/2000/svg"
   xmlns:sodipodi="http://sodipodi.sourceforge.net/DTD/sodipodi-0.dtd"
   xmlns:inkscape="http://www.inkscape.org/namespaces/inkscape"
   width="210mm"
   height="297mm"
   viewBox="0 0 210 297"
   version="1.1"
   id="svg8"
   inkscape:version="1.0 (4035a4fb49, 2020-05-01)"
   sodipodi:docname="basettaRX.svg">
  <defs
     id="defs2" />
  <sodipodi:namedview
     inkscape:snap-bbox-edge-midpoints="true"
     inkscape:bbox-nodes="true"
     inkscape:bbox-paths="true"
     inkscape:snap-bbox="true"
     inkscape:guide-bbox="true"
     showguides="false"
     id="base"
     pagecolor="#ffffff"
     bordercolor="#666666"
     borderopacity="1.0"
     inkscape:pageopacity="0.0"
     inkscape:pageshadow="2"
     inkscape:zoom="0.63355496"
     inkscape:cx="-400.77887"
     inkscape:cy="699.65165"
     inkscape:document-units="mm"
     inkscape:current-layer="layer1"
     inkscape:document-rotation="0"
     showgrid="false"
     showborder="false"
     inkscape:window-width="1280"
     inkscape:window-height="657"
     inkscape:window-x="-8"
     inkscape:window-y="-8"
     inkscape:window-maximized="1"
     inkscape:snap-global="false">
    <sodipodi:guide
       id="guide121"
       orientation="0,-1"
       position="-53.539734,200.52745" />
    <sodipodi:guide
       id="guide125"
       orientation="1,0"
       position="-162.66939,195.41466" />
    <sodipodi:guide
       id="guide127"
       orientation="1,0"
       position="-61.807318,176.09987" />
    <sodipodi:guide
       id="guide129"
       orientation="0,-1"
       position="-59.092806,182.99056" />
    <sodipodi:guide
       id="guide131"
       orientation="0,-1"
       position="-53.539733,40.780153" />
    <sodipodi:guide
       id="guide133"
       orientation="0,-1"
       position="-53.439734,111.88384" />
  </sodipodi:namedview>
  <metadata
     id="metadata5">
    <rdf:RDF>
      <cc:Work
         rdf:about="">
        <dc:format>image/svg+xml</dc:format>
        <dc:type
           rdf:resource="http://purl.org/dc/dcmitype/StillImage" />
        <dc:title></dc:title>
      </cc:Work>
    </rdf:RDF>
  </metadata>
  <g
     inkscape:label="Livello 1"
     inkscape:groupmode="layer"
     id="layer1">
    <rect
       style="opacity:0.61;fill:none;stroke:#ff0000;stroke-width:0.2"
       id="rect10-6"
       width="54.799999"
       height="161.8"
       x="-164.93916"
       y="105.93066" />
    <rect
       style="opacity:0.61;fill:none;stroke:#ff0000;stroke-width:0.2"
       id="rect27"
       width="42.799999"
       height="29.799999"
       x="-266.27798"
       y="-94.098366"
       transform="rotate(-90)" />
    <path
       style="opacity:0.61;fill:none;stroke:#00ff00;stroke-width:0.2"
       id="path417"
       sodipodi:type="arc"
       sodipodi:cx="-65.925446"
       sodipodi:cy="112.72728"
       sodipodi:rx="1.5489155"
       sodipodi:ry="1.5503788"
       sodipodi:start="5.6906444"
       sodipodi:end="5.6881786"
       sodipodi:arc-type="arc"
       sodipodi:open="true"
       d="m -64.640582,111.86144 a 1.5489155,1.5503788 0 0 1 -0.419048,2.15138 1.5489155,1.5503788 0 0 1 -2.149611,-0.41811 1.5489155,1.5503788 0 0 1 0.416397,-2.1519 1.5489155,1.5503788 0 0 1 2.150125,0.41546" />
    <path
       sodipodi:open="true"
       sodipodi:arc-type="arc"
       sodipodi:end="5.6881786"
       sodipodi:start="5.6906444"
       sodipodi:ry="1.5503788"
       sodipodi:rx="1.5489155"
       sodipodi:cy="112.72728"
       sodipodi:cx="-96.723541"
       sodipodi:type="arc"
       id="path417-9"
       style="opacity:0.61;fill:none;stroke:#00ff00;stroke-width:0.2"
       d="m -95.438678,111.86144 a 1.5489155,1.5503788 0 0 1 -0.419048,2.15138 1.5489155,1.5503788 0 0 1 -2.149611,-0.41811 1.5489155,1.5503788 0 0 1 0.416397,-2.1519 1.5489155,1.5503788 0 0 1 2.150125,0.41546" />
    <path
       sodipodi:open="true"
       sodipodi:arc-type="arc"
       sodipodi:end="5.6881786"
       sodipodi:start="5.6906444"
       sodipodi:ry="1.5503788"
       sodipodi:rx="1.5489155"
       sodipodi:cy="187.68446"
       sodipodi:cx="-65.916046"
       sodipodi:type="arc"
       id="path417-5"
       style="opacity:0.61;fill:none;stroke:#00ff00;stroke-width:0.2"
       d="m -64.631183,186.81862 a 1.5489155,1.5503788 0 0 1 -0.419048,2.15139 1.5489155,1.5503788 0 0 1 -2.149611,-0.41812 1.5489155,1.5503788 0 0 1 0.416397,-2.1519 1.5489155,1.5503788 0 0 1 2.150125,0.41546" />
    <path
       sodipodi:open="true"
       sodipodi:arc-type="arc"
       sodipodi:end="5.6881786"
       sodipodi:start="5.6906444"
       sodipodi:ry="1.5503788"
       sodipodi:rx="1.5489155"
       sodipodi:cy="187.54915"
       sodipodi:cx="-96.723541"
       sodipodi:type="arc"
       id="path417-2"
       style="opacity:0.61;fill:none;stroke:#00ff00;stroke-width:0.2"
       d="m -95.438678,186.68331 a 1.5489155,1.5503788 0 0 1 -0.419048,2.15138 1.5489155,1.5503788 0 0 1 -2.149611,-0.41812 1.5489155,1.5503788 0 0 1 0.416397,-2.15189 1.5489155,1.5503788 0 0 1 2.150125,0.41546" />
    <rect
       style="opacity:0.61;fill:none;stroke:#000000;stroke-width:0.2"
       id="rect181"
       width="117.6864"
       height="177.28723"
       x="-171.22614"
       y="96.472549" />
    <rect
       transform="rotate(90)"
       x="206.06331"
       y="88.820259"
       class="st0"
       width="0.34978846"
       height="1.7268658"
       id="rect4"
       style="fill:none;stroke:#ff00ff;stroke-width:0.1;stroke-miterlimit:4;stroke-dasharray:none" />
    <rect
       transform="rotate(90)"
       x="205.02522"
       y="97.127281"
       class="st0"
       width="1.3878704"
       height="0.34988782"
       id="rect6"
       style="fill:none;stroke:#ff00ff;stroke-width:0.1;stroke-miterlimit:4;stroke-dasharray:none" />
    <path
       class="st0"
       d="m -87.172402,206.18743 c 0.13544,-0.80113 0.23702,-1.69253 0,-2.96756 -0.6772,-3.71228 -3.95035,-6.51058 -7.85555,-6.51058 -4.4131,0 -8.002268,3.57687 -8.002268,8 0,4.41185 3.577878,8 8.002268,8 3.9052,-0.0113 7.15577,-2.80959 7.85555,-6.52186 m -10.99325,-4.62624 v -0.68829 h 0.68849 v 0.68829 z m 1.03837,0 v -0.68829 h 3.79234 v 0.68829 z m 8.99551,0.6883 v 0.68829 l -4.15351,-0.0113 v 0.34979 h 4.15351 v 0.68829 h -4.15351 v 0.34979 l 4.15351,0.0113 v 0.68829 h -4.842 v -2.76445 z m -13.837498,4.84062 v -0.6883 h 0.68849 v -1.38787 h -0.68849 v -0.68829 h 0.68849 v -1.37659 h -0.68849 v -0.68829 h 1.38826 v 4.84062 h -1.38826 z m 2.765238,0 v -2.07617 h -0.34989 v 2.07617 h -0.688488 v -2.07617 h 0.349888 v -0.68829 h -0.349888 v -2.07616 h 0.688488 v 2.07616 h 0.34989 v -2.07616 h 0.68849 v 4.84062 z m 1.03838,0 v -4.84062 h 0.68849 v 2.07616 h 0.34988 v -2.07616 h 0.68849 v 4.84062 z m 2.07675,0 v -4.84062 h 0.68849 v 4.15232 h 0.34989 v -4.15232 h 0.68849 v 4.15232 h 0.34988 l -0.0113,-4.15232 h 0.68849 v 4.84062 z m 4.842,0 v -1.03808 h -1.03838 v 1.03808 h -0.68849 v -1.72638 h 4.842 v 1.72638 z m -6.91875,1.38787 v -0.6883 h 0.68849 v 0.6883 z m 1.03837,0 v -0.6883 h 3.79234 v 0.6883 z"
       id="path8"
       style="fill:none;stroke:#ff00ff;stroke-width:0.1;stroke-miterlimit:4;stroke-dasharray:none" />
    <path
       class="st1"
       d="M -88.628392,204.67544"
       id="path10"
       style="stroke:#ff00ff;stroke-width:0.264583" />
    <rect
       y="104.00944"
       x="-61.892803"
       height="10"
       width="2.8"
       id="rect163-2-9-0-2"
       style="opacity:0.61;fill:none;stroke:#00ff00;stroke-width:0.2" />
    <rect
       style="opacity:0.61;fill:none;stroke:#00ff00;stroke-width:0.2"
       id="rect163-2-9-0-2-6"
       width="2.8"
       height="10"
       x="-165.5694"
       y="103.90944" />
    <rect
       y="256.31985"
       x="-165.5694"
       height="10"
       width="2.8"
       id="rect163-2-9-0-2-6-9"
       style="opacity:0.61;fill:none;stroke:#00ff00;stroke-width:0.2" />
    <rect
       style="opacity:0.61;fill:none;stroke:#00ff00;stroke-width:0.2"
       id="rect163-2-9-0-2-6-9-7"
       width="2.8"
       height="10"
       x="-61.707317"
       y="256.31985" />
    <rect
       style="opacity:0.61;fill:none;stroke:#00ff00;stroke-width:0.2"
       id="rect163-2-9-0-2-2"
       width="2.8"
       height="10"
       x="-61.707317"
       y="180.11617" />
    <rect
       style="opacity:0.61;fill:none;stroke:#00ff00;stroke-width:0.2"
       id="rect163-2-9-0-2-3"
       width="2.8"
       height="10"
       x="-165.5694"
       y="180.11617" />
    <path
       id="rect263-3-7-1"
       style="opacity:0.61;fill:none;stroke:#000000;stroke-width:0.2;stroke-miterlimit:4;stroke-dasharray:none"
       d="m -47.867481,116.74748 h -2.8301 l -0.0364,10 h 2.86649 m -1.1e-5,-10 v 0 l -0.0101,-2.73804 h 5.79964 v 15.27607 h -5.79964 l 0.0101,-2.53803"
       sodipodi:nodetypes="ccccccccccc" />
    <path
       sodipodi:nodetypes="ccccccccccc"
       d="m -47.867481,134.29065 h -2.8301 l -0.0364,10 h 2.86649 m -1.1e-5,-10 v 0 l -0.0101,-2.73804 h 5.799642 v 15.27607 h -5.799642 l 0.0101,-2.53803"
       style="opacity:0.61;fill:none;stroke:#000000;stroke-width:0.2;stroke-miterlimit:4;stroke-dasharray:none"
       id="rect263-3-7-1-1" />
    <path
       sodipodi:nodetypes="ccccccccccc"
       d="m -47.2328,152.49481 h -2.8301 l -0.0364,10 h 2.86649 m -1.1e-5,-10 v 0 l -0.0101,-2.73804 h 5.79964 v 15.27607 h -5.79964 l 0.0101,-2.53803"
       style="opacity:0.61;fill:none;stroke:#000000;stroke-width:0.2;stroke-miterlimit:4;stroke-dasharray:none"
       id="rect263-3-7-1-8" />
    <path
       sodipodi:nodetypes="ccccccccccc"
       d="m -46.9375,171.0987 h -2.8301 l -0.0364,10 h 2.86649 m -1.1e-5,-10 v 0 l -0.0101,-2.73804 h 5.79964 v 15.27607 h -5.79964 l 0.0101,-2.53803"
       style="opacity:0.61;fill:none;stroke:#000000;stroke-width:0.2;stroke-miterlimit:4;stroke-dasharray:none"
       id="rect263-3-7-1-3" />
    <path
       sodipodi:nodetypes="ccccccccccc"
       d="m -47.2328,190.29319 h -2.8301 l -0.0364,10 h 2.86649 m -1.1e-5,-10 v 0 l -0.0101,-2.73804 h 5.79964 v 15.27607 h -5.79964 l 0.0101,-2.53803"
       style="opacity:0.61;fill:none;stroke:#000000;stroke-width:0.2;stroke-miterlimit:4;stroke-dasharray:none"
       id="rect263-3-7-1-7" />
    <path
       sodipodi:nodetypes="ccccccccccc"
       d="m -46.642201,209.19238 h -2.8301 l -0.0364,10 h 2.86649 m -1.1e-5,-10 v 0 l -0.0101,-2.73804 h 5.79964 v 15.27607 h -5.79964 l 0.0101,-2.53803"
       style="opacity:0.61;fill:none;stroke:#000000;stroke-width:0.2;stroke-miterlimit:4;stroke-dasharray:none"
       id="rect263-3-7-1-2" />
  </g>
</svg>
